# xmcd
# 
# Track frame offsets:
#     150
#     20867
#     42630
#     69087
#     89672
#     118502
#     134087
#     153307
# 
# Disc length: 2430
# 
# Revision: 0
# Processed by: cddbd v1.5.2PL0 Copyright (c) Steve Scherf et al.
# Submitted via: fre:ac v1.0.17
# 
DISCID=71097c08
DTITLE=The Forrest Jourdan Band - The Forrest Jourdan Band
DYEAR=1994
DGENRE=Blues
TTITLE0=The Way Love Is Supposed To Be
TTITLE1=Working For Betty
TTITLE2=Slam Blues
TTITLE3=Holding Hands
TTITLE4=Denver Town
TTITLE5=Nobody Knows My Baby
TTITLE6=Old Buster
TTITLE7=The Holiday Inn Song
EXTD=
EXTT0=
EXTT1=
EXTT2=
EXTT3=
EXTT4=
EXTT5=
EXTT6=
EXTT7=
PLAYORDER=
